<svg width="49" height="49" viewBox="0 0 49 49" fill="none" xmlns="http://www.w3.org/2000/svg">
<path d="M3.59009 10.7522H38.5901C39.1205 10.7522 39.6293 10.9629 40.0043 11.338C40.3793 11.7131 40.5901 12.2218 40.5901 12.7522V33.7522C40.5901 34.813 40.1687 35.8304 39.4185 36.5806C38.6683 37.3308 37.6509 37.7522 36.5901 37.7522H5.59009C4.52923 37.7522 3.51181 37.3308 2.76167 36.5806C2.01152 35.8304 1.59009 34.813 1.59009 33.7522V12.7522C1.59009 12.2218 1.8008 11.7131 2.17587 11.338C2.55095 10.9629 3.05965 10.7522 3.59009 10.7522Z" stroke="#89C446" stroke-width="1.5" stroke-linecap="round" stroke-linejoin="round"/>
<path d="M46.5901 31.7522L40.5901 16.7522" stroke="#89C446" stroke-width="1.5" stroke-linecap="round" stroke-linejoin="round"/>
<path d="M25.5901 18.2522V10.7522H16.5901V18.2522C15.3308 19.1967 14.4006 20.5134 13.9312 22.016C13.4619 23.5184 13.4772 25.1306 13.975 26.624C14.4727 28.1172 15.4278 29.4162 16.7048 30.3366C17.9817 31.257 19.516 31.7522 21.0901 31.7522C22.6643 31.7522 24.1985 31.257 25.4755 30.3366C26.7525 29.4162 27.7075 28.1172 28.2053 26.624C28.7031 25.1306 28.7183 23.5184 28.2489 22.016C27.7797 20.5134 26.8493 19.1967 25.5901 18.2522Z" stroke="#89C446" stroke-width="1.5" stroke-linecap="round" stroke-linejoin="round"/>
<path d="M21.0901 25.0022C20.6759 25.0022 20.3401 24.6664 20.3401 24.2522C20.3401 23.838 20.6759 23.5022 21.0901 23.5022" stroke="#89C446" stroke-width="1.5"/>
<path d="M21.0901 25.0022C21.5043 25.0022 21.8401 24.6664 21.8401 24.2522C21.8401 23.838 21.5043 23.5022 21.0901 23.5022" stroke="#89C446" stroke-width="1.5"/>
<path d="M1.59009 25.7522H13.7401" stroke="#89C446" stroke-width="1.5" stroke-linecap="round" stroke-linejoin="round"/>
<path d="M40.5901 25.7522H28.4401" stroke="#89C446" stroke-width="1.5" stroke-linecap="round" stroke-linejoin="round"/>
</svg>
