<svg width="16" height="16" viewBox="0 0 16 16" fill="none" xmlns="http://www.w3.org/2000/svg">
<path fill-rule="evenodd" clip-rule="evenodd" d="M13.3334 2H2.66671C1.93337 2 1.33337 2.6 1.33337 3.33333V12.6667C1.33337 13.4 1.93337 14 2.66671 14H13.3334C14.0667 14 14.6667 13.4 14.6667 12.6667V3.33333C14.6667 2.6 14.0667 2 13.3334 2ZM13.3334 12.6667H2.66671V3.33333H13.3334V12.6667Z" fill="white"/>
<path fill-rule="evenodd" clip-rule="evenodd" d="M12.94 6.94667L11.9933 6L9.88 8.11333L8.94 7.16667L8 8.10667L9.88 10L12.94 6.94667Z" fill="white"/>
<path d="M6.66671 4.66669H3.33337V6.00002H6.66671V4.66669Z" fill="white"/>
<path d="M6.66671 7.33331H3.33337V8.66665H6.66671V7.33331Z" fill="white"/>
<path d="M6.66671 10H3.33337V11.3333H6.66671V10Z" fill="white"/>
</svg>
