<svg width="48" height="48" viewBox="0 0 48 48" fill="none" xmlns="http://www.w3.org/2000/svg">
<path d="M39.272 46.5L39.472 44.256C39.604 42.8034 39.2023 41.3524 38.342 40.1745C37.4818 38.9966 36.2219 38.1724 34.798 37.856L27.496 36.234V24.75C27.496 23.7554 27.1009 22.8016 26.3977 22.0983C25.6944 21.3951 24.7406 21 23.746 21C22.7514 21 21.7976 21.3951 21.0944 22.0983C20.3911 22.8016 19.996 23.7554 19.996 24.75V43.15L17.046 40.944C16.4556 40.5031 15.7262 40.2895 14.9913 40.3424C14.2564 40.3953 13.5651 40.7111 13.0439 41.232C12.5228 41.7529 12.2066 42.4441 12.1534 43.179C12.1002 43.9139 12.3134 44.6434 12.754 45.234L13.704 46.5" stroke="#89C446" stroke-width="1.5" stroke-linecap="round" stroke-linejoin="round"/>
<path d="M17.75 6.75C17.75 7.43944 17.8858 8.12213 18.1496 8.75909C18.4135 9.39605 18.8002 9.9748 19.2877 10.4623C19.7752 10.9498 20.354 11.3365 20.9909 11.6004C21.6279 11.8642 22.3106 12 23 12C23.6894 12 24.3721 11.8642 25.0091 11.6004C25.646 11.3365 26.2248 10.9498 26.7123 10.4623C27.1998 9.9748 27.5865 9.39605 27.8504 8.75909C28.1142 8.12213 28.25 7.43944 28.25 6.75C28.25 6.06056 28.1142 5.37787 27.8504 4.74091C27.5865 4.10395 27.1998 3.5252 26.7123 3.03769C26.2248 2.55018 25.646 2.16347 25.0091 1.89963C24.3721 1.6358 23.6894 1.5 23 1.5C22.3106 1.5 21.6279 1.6358 20.9909 1.89963C20.354 2.16347 19.7752 2.55018 19.2877 3.03769C18.8002 3.5252 18.4135 4.10395 18.1496 4.74091C17.8858 5.37787 17.75 6.06056 17.75 6.75Z" stroke="#89C446" stroke-width="1.5" stroke-linecap="round" stroke-linejoin="round"/>
<path d="M27.574 14.8299C26.2144 13.9652 24.6376 13.5034 23.0263 13.4981C21.415 13.4928 19.8352 13.9442 18.47 14.7999" stroke="#89C446" stroke-width="1.5" stroke-linecap="round" stroke-linejoin="round"/>
<path d="M4.25 20.25C4.25 20.9394 4.3858 21.6221 4.64963 22.2591C4.91347 22.896 5.30018 23.4748 5.78769 23.9623C6.2752 24.4498 6.85395 24.8365 7.49091 25.1004C8.12787 25.3642 8.81056 25.5 9.5 25.5C10.1894 25.5 10.8721 25.3642 11.5091 25.1004C12.146 24.8365 12.7248 24.4498 13.2123 23.9623C13.6998 23.4748 14.0865 22.896 14.3504 22.2591C14.6142 21.6221 14.75 20.9394 14.75 20.25C14.75 19.5606 14.6142 18.8779 14.3504 18.2409C14.0865 17.604 13.6998 17.0252 13.2123 16.5377C12.7248 16.0502 12.146 15.6635 11.5091 15.3996C10.8721 15.1358 10.1894 15 9.5 15C8.81056 15 8.12787 15.1358 7.49091 15.3996C6.85395 15.6635 6.2752 16.0502 5.78769 16.5377C5.30018 17.0252 4.91347 17.604 4.64963 18.2409C4.3858 18.8779 4.25 19.5606 4.25 20.25Z" stroke="#89C446" stroke-width="1.5" stroke-linecap="round" stroke-linejoin="round"/>
<path d="M13.302 27.898C11.3203 26.9069 9.02991 26.7288 6.9188 27.4016C4.8077 28.0744 3.04276 29.545 2 31.5" stroke="#89C446" stroke-width="1.5" stroke-linecap="round" stroke-linejoin="round"/>
<path d="M12.5 9H9.5" stroke="#89C446" stroke-width="1.5" stroke-linecap="round" stroke-linejoin="round"/>
<path d="M12.5 3L9.5 1.5" stroke="#89C446" stroke-width="1.5" stroke-linecap="round" stroke-linejoin="round"/>
<path d="M33.5 9H36.5" stroke="#89C446" stroke-width="1.5" stroke-linecap="round" stroke-linejoin="round"/>
<path d="M33.5 3L36.5 1.5" stroke="#89C446" stroke-width="1.5" stroke-linecap="round" stroke-linejoin="round"/>
<path d="M32.75 20.25C32.75 20.9394 32.8858 21.6221 33.1496 22.2591C33.4135 22.896 33.8002 23.4748 34.2877 23.9623C34.7752 24.4498 35.354 24.8365 35.9909 25.1004C36.6279 25.3642 37.3106 25.5 38 25.5C38.6894 25.5 39.3721 25.3642 40.0091 25.1004C40.646 24.8365 41.2248 24.4498 41.7123 23.9623C42.1998 23.4748 42.5865 22.896 42.8504 22.2591C43.1142 21.6221 43.25 20.9394 43.25 20.25C43.25 19.5606 43.1142 18.8779 42.8504 18.2409C42.5865 17.604 42.1998 17.0252 41.7123 16.5377C41.2248 16.0502 40.646 15.6635 40.0091 15.3996C39.3721 15.1358 38.6894 15 38 15C37.3106 15 36.6279 15.1358 35.9909 15.3996C35.354 15.6635 34.7752 16.0502 34.2877 16.5377C33.8002 17.0252 33.4135 17.604 33.1496 18.2409C32.8858 18.8779 32.75 19.5606 32.75 20.25Z" stroke="#89C446" stroke-width="1.5" stroke-linecap="round" stroke-linejoin="round"/>
<path d="M34.2 27.898C36.1814 26.9067 38.4716 26.7283 40.5827 27.4007C42.6938 28.0731 44.4589 29.5433 45.5019 31.498" stroke="#89C446" stroke-width="1.5" stroke-linecap="round" stroke-linejoin="round"/>
</svg>
