<svg width="48" height="48" viewBox="0 0 48 48" fill="none" xmlns="http://www.w3.org/2000/svg">
<g clip-path="url(#clip0_51_256)">
<path d="M31.741 14.6455C32.5644 15.3043 33.0586 16.2925 33.0586 17.2807V28.4804C33.0586 30.2922 31.5762 31.7744 29.7644 31.7744H18.2354C16.4237 31.7744 14.9414 30.2922 14.9414 28.4804V13.6573C14.9414 11.8456 16.4237 10.3633 18.2354 10.3633H24.9882C25.647 10.3633 26.4704 10.528 26.9646 11.0221L31.741 14.6455Z" stroke="white" stroke-width="1.5" stroke-miterlimit="10" stroke-linecap="round" stroke-linejoin="round"/>
<path d="M19.8828 15.9648H24" stroke="white" stroke-width="1.5" stroke-miterlimit="10" stroke-linecap="round" stroke-linejoin="round"/>
<path d="M19.8828 21.1924H28.1178" stroke="white" stroke-width="1.5" stroke-miterlimit="10" stroke-linecap="round" stroke-linejoin="round"/>
<path d="M19.8828 26.4208H25.6436" stroke="white" stroke-width="1.5" stroke-miterlimit="10" stroke-linecap="round" stroke-linejoin="round"/>
<path d="M24 37.46V46.5" stroke="white" stroke-width="1.5" stroke-miterlimit="10" stroke-linecap="round" stroke-linejoin="round"/>
<path d="M19.2246 41.9637L23.9996 46.5001L28.7748 41.9637" stroke="white" stroke-width="1.5" stroke-miterlimit="10" stroke-linecap="round" stroke-linejoin="round"/>
<path d="M12.9509 43.5C6.12054 39.7 1.5 32.3 1.5 23.9C1.5 11.5 11.5447 1.5 24 1.5C36.4554 1.5 46.5 11.5 46.5 23.9C46.5 32.3 41.8794 39.7 35.049 43.5" stroke="white" stroke-width="1.5" stroke-miterlimit="10" stroke-linecap="round" stroke-linejoin="round"/>
</g>
<defs>
<clipPath id="clip0_51_256">
<rect width="48" height="48" fill="white"/>
</clipPath>
</defs>
</svg>
