<svg width="59" height="50" viewBox="0 0 59 50" fill="none" xmlns="http://www.w3.org/2000/svg">
<path fill-rule="evenodd" clip-rule="evenodd" d="M44.5048 8.05828C48.2451 8.43386 50.745 11.7838 53.222 14.8787C55.9384 18.2728 59.4324 21.6299 58.956 26.1147C58.4368 31.0023 54.891 34.8004 50.8728 36.994C46.7824 39.2269 41.97 39.8133 37.856 37.6331C33.7489 35.4566 31.1102 30.9764 30.2502 26.0655C29.4272 21.3659 30.6639 16.5152 33.525 12.9009C36.2453 9.4645 40.3715 7.64324 44.5048 8.05828Z" fill="#89C446"/>
<path d="M8.51251 25.0808L20.9387 37.1644M8.51251 25.0808L20.5961 12.6546M8.51251 25.0808L29.9585 24.781M41.1922 24.624L36.086 24.6953" stroke="#4B4B4B" stroke-width="1.5" stroke-linecap="round" stroke-linejoin="round"/>
</svg>
