<svg width="59" height="50" viewBox="0 0 59 50" fill="none" xmlns="http://www.w3.org/2000/svg">
<path fill-rule="evenodd" clip-rule="evenodd" d="M14.4952 41.6466C10.7549 41.271 8.25502 37.9211 5.778 34.8261C3.0616 31.4321 -0.432448 28.0749 0.0439585 23.5902C0.56316 18.7025 4.109 14.9044 8.12725 12.7108C12.2176 10.4779 17.03 9.89157 21.144 12.0717C25.2511 14.2482 27.8898 18.7284 28.7498 23.6394C29.5728 28.3389 28.3361 33.1896 25.475 36.804C22.7547 40.2403 18.6285 42.0616 14.4952 41.6466Z" fill="#89C446"/>
<path d="M50.4875 24.624L38.0613 12.5405M50.4875 24.624L38.4039 37.0502M50.4875 24.624L29.0415 24.9238M17.8078 25.0809L22.914 25.0095" stroke="#4B4B4B" stroke-width="1.5" stroke-linecap="round" stroke-linejoin="round"/>
</svg>
